<svg version="1.1" width="24" height="24" viewBox="0 0 504 504" aria-labelledby="instagramTitle">
        <title id="instagramTitle">Follow me on Instagram</title>
        <path d="M252 45.47c67.27 0 75.23.26 101.8 1.47 24.56 1.12 37.9 5.22 46.78 8.67a78.07 78.07 0 0 1 29 18.84 78 78 0 0 1 18.84 29c3.45 8.88 7.55 22.22 8.67 46.78 1.21 26.57 1.47 34.53 1.47 101.8s-.26 75.23-1.47 101.8c-1.12 24.56-5.22 37.9-8.67 46.78a83.42 83.42 0 0 1-47.81 47.81c-8.88 3.45-22.22 7.55-46.78 8.67-26.56 1.21-34.53 1.47-101.8 1.47s-75.24-.26-101.8-1.47c-24.56-1.12-37.9-5.22-46.78-8.67a78.06 78.06 0 0 1-29-18.84 78 78 0 0 1-18.84-29c-3.45-8.88-7.55-22.22-8.67-46.78-1.21-26.57-1.47-34.53-1.47-101.8s.26-75.23 1.47-101.8c1.12-24.56 5.22-37.9 8.67-46.78a78.08 78.08 0 0 1 18.84-29 78 78 0 0 1 29-18.85c8.88-3.45 22.22-7.55 46.78-8.67 26.57-1.21 34.53-1.47 101.8-1.47M252 .08c-68.42 0-77 .29-103.86 1.51S103 7.07 87 13.3a123.49 123.49 0 0 0-44.63 29.06A123.49 123.49 0 0 0 13.31 87C7.08 103 2.82 121.32 1.6 148.13S.08 183.58.08 252s.29 77 1.52 103.87S7.08 401 13.31 417a123.49 123.49 0 0 0 29.06 44.62A123.47 123.47 0 0 0 87 490.7c16 6.23 34.34 10.49 61.15 11.71s35.45 1.52 103.87 1.52 77-.29 103.87-1.52S401 496.92 417 490.7a128.82 128.82 0 0 0 73.7-73.7c6.23-16 10.49-34.34 11.71-61.15s1.52-35.45 1.52-103.87-.29-77-1.51-103.87S496.93 103 490.7 87a123.48 123.48 0 0 0-29.06-44.62A123.49 123.49 0 0 0 417 13.31C401 7.08 382.68 2.82 355.87 1.6S320.42.08 252 .08"
        />
        <path d="M252 122.64A129.36 129.36 0 1 0 381.36 252 129.37 129.37 0 0 0 252 122.64zM252 336a84 84 0 1 1 84-84 84 84 0 0 1-84 84zm164.71-218.47a30.23 30.23 0 1 1-30.23-30.23 30.23 30.23 0 0 1 30.23 30.23"
        />
    </svg>